# AST/ASF file generated using VICON BodyLanguage
# -----------------------------------------------
:version 1.10
:name VICON
:units
  mass 1.0
  length 0.45
  angle deg
:documentation
   .ast/.asf automatically generated from VICON data using
   VICON BodyBuilder and BodyLanguage model FoxedUp or BRILLIANT.MOD
:root
   order TX TY TZ RX RY RZ
   axis XYZ
   position 0 0 0  
   orientation 0 0 0 
:bonedata
  begin
     id 1 
     name lhipjoint
     direction 0.612567 -0.751349 0.245431 
     length 2.42285 
     axis 0 0 0  XYZ
  end
  begin
     id 2 
     name lfemur
     direction 0.34202 -0.939693 0  
     length 7.11304  
     axis 0 0 20  XYZ
    dof rx ry rz
    limits (-160.0 20.0)
           (-70.0 70.0)
           (-60.0 70.0)
  end
  begin
     id 3 
     name ltibia
     direction 0.34202 -0.939693 0   
     length 7.84529   
     axis 0 0 20   XYZ
    dof rx
    limits (-10.0 170.0)
  end
  begin
     id 4 
     name lfoot
     direction 0.0779239 -0.214094 0.9737   
     length 1.97176   
     axis -90 7.62852e-016 20   XYZ
    dof rx rz
    limits (-45.0 90.0)
           (-70.0 20.0)
  end
  begin
     id 5 
     name ltoes
     direction 1.53565e-011 -4.21709e-011 1   
     length 0.993197   
     axis -90 7.62852e-016 20   XYZ
    dof rx
    limits (-90.0 20.0)
  end
  begin
     id 6 
     name rhipjoint
     direction -0.665722 -0.709315 0.231701   
     length 2.56642  
     axis 0 0 0  XYZ 
  end
  begin
     id 7 
     name rfemur
     direction -0.34202 -0.939693 0   
     length 7.32108   
     axis 0 0 -20   XYZ
    dof rx ry rz
    limits (-160.0 20.0)
           (-70.0 70.0)
           (-70.0 60.0)
  end
  begin
     id 8 
     name rtibia
     direction -0.34202 -0.939693 0   
     length 7.81254   
     axis 0 0 -20   XYZ
    dof rx
    limits (-10.0 170.0)
 end
 begin
     id 9 
     name rfoot
     direction -0.0832806 -0.228812 0.969902   
     length 2.08278  
     axis -90 -7.62852e-016 -20   XYZ
    dof rx rz
    limits (-45.0 90.0)
           (-20.0 70.0)
  end
  begin
     id 10 
     name rtoes
     direction -1.53589e-011 -4.22086e-011 1   
     length 1.04609   
     axis -90 -7.62852e-016 -20   XYZ
    dof rx
    limits (-90.0 20.0)
  end
  begin
     id 11 
     name lowerback
     direction -0.00506013 0.988403 -0.151766   
     length 2.01978   
     axis 0 0 0   XYZ
    dof rx ry rz
    limits (-20.0 45.0)
           (-30.0 30.0)
           (-30.0 30.0)
  end
  begin
     id 12 
     name upperback
     direction -0.00836389 0.99968 0.0238859   
     length 2.01276   
     axis 0 0 0   XYZ
    dof rx ry rz
    limits (-20.0 45.0)
           (-30.0 30.0)
           (-30.0 30.0)
  end
  begin
     id 13 
     name thorax
     direction -0.00684136 0.995386 0.0957043   
     length 2.07303   
     axis 0 0 0   XYZ
    dof rx ry rz
    limits (-20.0 45.0)
           (-30.0 30.0)
           (-30.0 30.0)
  end
  begin
     id 14 
     name lowerneck
     direction -0.0161045 0.999661 0.0204485   
     length 1.91243   
     axis 0 0 0   XYZ
    dof rx ry rz
    limits (-20.0 45.0)
           (-30.0 30.0)
           (-30.0 30.0)
  end
  begin
     id 15 
     name upperneck
     direction 0.0553583 0.990946 -0.122319   
     length 1.91574   
     axis 0 0 0   XYZ
    dof rx ry rz
    limits (-20.0 45.0)
           (-30.0 30.0)
           (-30.0 30.0)
  end
  begin
     id 16
     name head
     direction 0.0180273 0.998839 -0.0446756  
     length 1.92693  
     axis 0 0 0   XYZ
    dof rx ry rz
    limits (-20.0 45.0)
           (-30.0 30.0)
           (-30.0 30.0)
  end
  begin
     id 17 
     name lclavicle
     direction 0.945646 0.319323 -0.0615358  
     length 4.0076  
     axis 0 0 0   XYZ
    dof ry rz
    limits (-20.0 10.0)
           (0.0 20.0)
  end
  begin
     id 18 
     name lhumerus
     direction 1 -4.48967e-011 -2.79996e-027   
     length 5.64147   
     axis 180 -30 -90   XYZ
    dof rx ry rz
    limits (-60.0 90.0)
           (-90.0 90.0)
           (-90.0 90.0)
  end
  begin
     id 19
     name lradius
     direction 1 -4.48976e-011 -9.5122e-027   
     length 2.86444   
     axis 180 -30 -90   XYZ
    dof rx
    limits (-10.0 170.0)
  end
  begin
     id 20
     name lwrist
     direction 1 -4.48983e-011 -1.24047e-026   
     length 1.43222   
     axis 9.05591e-015 90 90   XYZ
    dof ry
    limits (-180.0 0.0)
 end
  begin
     id 21 
     name lhand
     direction 1 -4.4892e-011 -2.48094e-026   
     length 0.722123   
     axis 1.58305e-014 90 90   XYZ
    dof rx rz
    limits (-90.0 90.0)
           (-45.0 45.0)
  end
  begin
     id 22 
     name lfingers
     direction 1 -4.48895e-011 -4.96187e-026   
     length 0.582194   
     axis 3.1661e-014 90 90   XYZ
    dof rx
    limits (0.0 90.0)
  end
  begin
     id 23
     name lthumb
     direction 0.707107 -6.34961e-011 0.707107   
     length 0.835918   
     axis -90 45 2.85299e-015   XYZ
    dof rx rz
    limits (-45.0 45.0)
           (-45.0 45.0)
  end
  begin
     id 24 
     name rclavicle
     direction -0.932635 0.324218 -0.15835   
     length 3.65819  
     axis 0 0 0   XYZ 
    dof ry rz
    limits (-10.0 20.0)
           (-20.0 0.0)
  end
  begin
     id 25 
     name rhumerus
     direction -1 -4.48965e-011 -4.02296e-027  
     length 5.44729   
     axis 180 30 90   XYZ
    dof rx ry rz
    limits (-90.0 60.0)
           (-90.0 90.0)
           (-90.0 90.0)
  end
  begin
     id 26 
     name rradius
     direction -1 -4.48957e-011 -8.81087e-027   
     length 3.08821   
     axis 180 30 90   XYZ
    dof rx
    limits (-10.0 170.0)
  end
  begin
     id 27 
     name rwrist
     direction -1 -4.49015e-011 -1.24047e-026   
     length 1.5441   
     axis 9.05591e-015 -90 -90   XYZ
    dof ry
    limits (-180.0 0.0)
  end
  begin
     id 28
     name rhand
     direction -1 -4.4891e-011 -2.48094e-026   
     length 0.821049   
     axis 1.58305e-014 -90 -90   XYZ
    dof rx rz
    limits (-90.0 90.0)
           (-45.0 45.0)
  end
  begin
     id 29
     name rfingers
     direction -1 -4.48985e-011 -4.96187e-026   
     length 0.661951   
     axis 3.1661e-014 -90 -90   XYZ
    dof rx
    limits (0.0 90.0)
  end
  begin
     id 30
     name rthumb
     direction -0.707107 -6.34906e-011 0.707107   
     length 0.950433   
     axis -90 -45 -2.85299e-015   XYZ
    dof rx rz
    limits (-45.0 45.0)
           (-45.0 45.0)
  end
:hierarchy
  begin
    root lhipjoint rhipjoint lowerback
    lhipjoint lfemur
    lfemur ltibia
    ltibia lfoot
    lfoot ltoes
    rhipjoint rfemur
    rfemur rtibia
    rtibia rfoot
    rfoot rtoes
    lowerback upperback
    upperback thorax
    thorax lowerneck lclavicle rclavicle
    lowerneck upperneck
    upperneck head
    lclavicle lhumerus
    lhumerus lradius
    lradius lwrist
    lwrist lhand lthumb
    lhand lfingers
    rclavicle rhumerus
    rhumerus rradius
    rradius rwrist
    rwrist rhand rthumb
    rhand rfingers
  end

#!OML:ASF F:\VICON\USERDATA\INSTALL\rory3\rory3.ASF
:FULLY-SPECIFIED
:DEGREES
3540
root 2.25583 17.5156 -1.11394 681.513 88.7568 681.079
lowerback 25.3945 -2.48927 4.13027
upperback 6.11605 -1.44407 2.13307
thorax -7.37123 -0.52197 0.398032
lowerneck 7.75076 -2.71666 -0.331275
upperneck -16.3069 -3.02298 3.55268
head -6.15333 -1.65845 1.40088
rclavicle -1.35174e-014 2.22639e-014
rhumerus 9.10419 -2.84655 -51.4416
rradius 141.492
rwrist 23.0957
rhand 1.35549 3.98096
rfingers 7.12502
rthumb 26.888 -24.1267
lclavicle -1.35174e-014 2.22639e-014
lhumerus -13.8733 16.2385 55.2903
lradius 143.112
lwrist 23.0265
lhand -26.4143 9.38995
lfingers 7.12502
lthumb 0.145579 39.3696
rfemur -9.79472 0.40715 15.1763
rtibia 24.6883
rfoot -19.0796 -7.35895
rtoes -4.23118
lfemur -12.7618 3.20835 -19.8522
ltibia 25.4352
lfoot -12.4263 -5.30137
ltoes 3.68285
3541
root 2.23345 17.5142 -1.11751 694.715 88.6502 694.106
lowerback 25.7329 -2.49362 4.19948
upperback 6.18352 -1.40423 2.10944
thorax -7.46784 -0.499635 0.327354
lowerneck 7.80969 -2.75128 -0.196819
upperneck -16.7055 -3.05817 3.41213
head -6.29407 -1.67181 1.34365
rclavicle 2.06736e-014 -1.66979e-014
rhumerus 9.37558 -2.62428 -51.7138
rradius 141.449
rwrist 23.2419
rhand 1.19556 3.92345
rfingers 7.12502
rthumb 26.735 -24.2077
lclavicle 2.06736e-014 -1.66979e-014
lhumerus -14.0937 16.2099 55.7359
lradius 143.215
lwrist 22.999
lhand -26.5695 9.02939
lfingers 7.12502
lthumb -0.00433606 39.0091
rfemur -10.2484 0.488013 14.9276
rtibia 24.9034
rfoot -18.9809 -7.13838
rtoes -4.17144
lfemur -13.0302 3.35665 -20.1009
ltibia 25.4577
lfoot -12.4365 -5.11735
ltoes 2.84479
3542
root 2.2099 17.5133 -1.12087 702.613 88.4792 701.875
lowerback 26.1324 -2.5073 4.28454
upperback 6.26466 -1.35846 2.14861
thorax -7.57772 -0.472894 0.315819
lowerneck 7.8618 -2.77087 -0.135672
upperneck -17.116 -3.08582 3.25934
head -6.43691 -1.6755 1.29392
rclavicle -1.51076e-014 -2.22639e-014
rhumerus 9.70309 -2.31573 -51.9443
rradius 141.397
rwrist 23.1454
rhand 0.986921 3.85777
rfingers 7.12502
rthumb 26.5353 -24.3037
lclavicle -1.51076e-014 -2.22639e-014
lhumerus -14.2741 16.1916 56.2329
lradius 143.219
lwrist 22.8853
lhand -26.9358 8.50184
lfingers 7.12502
lthumb -0.358039 38.4813
rfemur -10.6553 0.566665 14.7742
rtibia 25.1163
rfoot -18.8471 -6.99697
rtoes -4.12735
lfemur -13.246 3.48297 -20.253
ltibia 25.4672
lfoot -12.3856 -5.01597
ltoes 2.8734
3543
root 2.18731 17.513 -1.12394 708.496 88.3357 707.599
lowerback 26.495 -2.53167 4.39042
upperback 6.3173 -1.32231 2.20118
thorax -7.70033 -0.452433 0.309754
lowerneck 7.87226 -2.76976 -0.140995
upperneck -17.4477 -3.09587 3.12215
head -6.54654 -1.6671 1.25672
rclavicle -7.55382e-015 -4.85035e-014
rhumerus 10.0594 -1.96003 -52.1967
rradius 141.207
rwrist 23.4962
rhand 0.747337 3.9749
rfingers 7.12502
rthumb 26.306 -24.221
lclavicle -7.55382e-015 -4.85035e-014
lhumerus -14.4496 16.183 56.7231
lradius 143.231
lwrist 22.7995
lhand -27.3627 8.17255
lfingers 7.12502
lthumb -0.770395 38.1509
rfemur -11.0696 0.612318 14.6286
rtibia 25.3172
rfoot -18.7452 -6.95113
rtoes -4.23644
lfemur -13.492 3.53579 -20.4097
ltibia 25.4593
lfoot -12.3114 -4.86821
ltoes 3.03134
3544
root 2.16708 17.5118 -1.12668 713.609 88.138 712.564
lowerback 26.8694 -2.54019 4.51756
upperback 6.3568 -1.26099 2.23489
thorax -7.84299 -0.421462 0.262792
lowerneck 7.85917 -2.77028 -0.146236
upperneck -17.7237 -3.10738 3.00382
head -6.63421 -1.6606 1.2243
rclavicle 7.55382e-015 -2.46493e-014
rhumerus 10.3752 -1.77314 -52.4586
rradius 140.996
rwrist 23.9296
rhand 0.536379 4.27461
rfingers 7.12502
rthumb 26.104 -23.9513
lclavicle 7.55382e-015 -2.46493e-014
lhumerus -14.5931 16.1906 57.1794
lradius 143.17
lwrist 22.6641
lhand -27.5405 7.78473
lfingers 7.12502
lthumb -0.942102 37.7624
rfemur -11.4647 0.648325 14.4866
rtibia 25.4992
rfoot -18.6168 -6.8503
rtoes -4.27489
lfemur -13.694 3.61322 -20.5591
ltibia 25.4248
lfoot -12.2733 -4.69524
ltoes 2.82273
3545
root 2.14871 17.5124 -1.12864 715.604 87.9323 714.447
lowerback 27.2438 -2.57191 4.68195
upperback 6.41494 -1.21403 2.2922
thorax -7.9644 -0.396511 0.224647
lowerneck 7.85755 -2.75636 -0.0702695
upperneck -17.9677 -3.10159 2.81465
head -6.71702 -1.64536 1.15411
rclavicle -2.50469e-014 2.38542e-014
rhumerus 10.6484 -1.62818 -52.7203
rradius 140.909
rwrist 24.3057
rhand 0.43576 4.41478
rfingers 7.12502
rthumb 26.0077 -23.8253
lclavicle -2.50469e-014 2.38542e-014
lhumerus -14.7529 16.3245 57.5445
lradius 143.082
lwrist 22.5928
lhand -27.5388 7.27357
lfingers 7.12502
lthumb -0.94043 37.2512
rfemur -11.7981 0.727233 14.4366
rtibia 25.6713
rfoot -18.4985 -6.86043
rtoes -4.70074
lfemur -13.8317 3.69917 -20.6207
ltibia 25.3542
lfoot -12.2388 -4.53003
ltoes 2.60193
